<?xml version="1.0" encoding="utf-8"?>
<!-- Generator: Adobe Illustrator 24.1.1, SVG Export Plug-In . SVG Version: 6.00 Build 0)  -->
<svg version="1.1" id="Layer_1" xmlns="http://www.w3.org/2000/svg" xmlns:xlink="http://www.w3.org/1999/xlink" x="0px" y="0px"
	 viewBox="0 0 283.46 283.46" style="enable-background:new 0 0 283.46 283.46;" xml:space="preserve">
<style type="text/css">
	.st0{fill:#2055A3;}
	.st1{fill:#D80E2A;}
</style>
<g>
	<g>
		<path class="st0" d="M100.24,138.57v6.32c0,2.92-0.46,5.73-1.32,8.37c-0.53,1.64-1.22,3.22-2.05,4.7
			c-4.6,8.31-13.46,13.93-23.63,13.93s-19.03-5.63-23.63-13.94c-0.83-1.48-1.51-3.06-2.05-4.7c-0.86-2.63-1.32-5.44-1.32-8.36
			v-33.32h27v27H100.24z"/>
		<polyline class="st1" points="100.24,138.57 100.24,111.57 73.24,111.57 		"/>
	</g>
	<rect x="108.07" y="111.57" class="st0" width="10.53" height="60.32"/>
	<path class="st0" d="M155.76,111.66h-31.27v60.24h31.27c9.81,0,17.78-7.9,17.78-17.6c0-4.71-1.83-9.14-5.17-12.51
		c3.34-3.37,5.17-7.77,5.17-12.43C173.54,119.59,165.57,111.66,155.76,111.66z M134.92,147.04h20.84c4.05,0,7.35,3.25,7.35,7.25
		c0,3.95-3.3,7.17-7.35,7.17h-20.84V147.04z M155.76,136.61h-20.84v-14.42h20.84c4,0,7.25,3.21,7.25,7.16
		C163.01,133.35,159.76,136.61,155.76,136.61z"/>
	<path class="st0" d="M225.28,150.41c-3.33,6.65-10.22,10.95-17.56,10.95c-10.85,0-19.68-8.83-19.68-19.68s8.83-19.68,19.68-19.68
		c7.34,0,14.24,4.3,17.56,10.95l0.46,0.93h11.15l-0.8-2.24c-4.3-12-15.7-20.07-28.36-20.07c-16.66,0-30.21,13.51-30.21,30.11
		s13.55,30.11,30.21,30.11c12.66,0,24.06-8.06,28.36-20.07l0.8-2.24h-11.15L225.28,150.41z"/>
</g>
</svg>
