<?xml version="1.0" encoding="utf-8"?>
<!-- Generator: Adobe Illustrator 25.0.0, SVG Export Plug-In . SVG Version: 6.00 Build 0)  -->
<svg version="1.1" id="Layer_1" xmlns="http://www.w3.org/2000/svg" xmlns:xlink="http://www.w3.org/1999/xlink" x="0px" y="0px"
	 viewBox="0 0 185 68" style="enable-background:new 0 0 185 68;" xml:space="preserve">
<style type="text/css">
	.st0{fill:#2055A3;}
	.st1{fill:#D80E2A;}
</style>
<g>
	<g>
		<path class="st0" d="M52.4,30.9v6.1c0,2.8-0.4,5.6-1.3,8.1c-0.5,1.6-1.2,3.1-2,4.6c-4.5,8.1-13.1,13.5-22.9,13.5
			S7.7,57.8,3.3,49.7c-0.8-1.4-1.5-3-2-4.6C0.4,42.6,0,39.9,0,37.1V4.7h26.2v26.2H52.4z"/>
		<polyline class="st1" points="52.4,30.9 52.4,4.7 26.2,4.7 		"/>
	</g>
	<rect x="60" y="4.7" class="st0" width="10.2" height="58.5"/>
	<path class="st0" d="M106.3,4.8H75.9v58.5h30.3c9.5,0,17.3-7.7,17.3-17.1c0-4.6-1.8-8.9-5-12.1c3.2-3.3,5-7.5,5-12.1
		C123.5,12.5,115.8,4.8,106.3,4.8z M86.1,39.1h20.2c3.9,0,7.1,3.2,7.1,7c0,3.8-3.2,7-7.1,7H86.1V39.1z M106.3,29H86.1V15h20.2
		c3.9,0,7,3.1,7,6.9C113.3,25.9,110.2,29,106.3,29z"/>
	<path class="st0" d="M173.7,42.4c-3.2,6.5-9.9,10.6-17,10.6c-10.5,0-19.1-8.6-19.1-19.1s8.6-19.1,19.1-19.1c7.1,0,13.8,4.2,17,10.6
		l0.4,0.9H185l-0.8-2.2C180.1,12.6,169,4.7,156.7,4.7c-16.2,0-29.3,13.1-29.3,29.2s13.1,29.2,29.3,29.2c12.3,0,23.3-7.8,27.5-19.5
		l0.8-2.2h-10.8L173.7,42.4z"/>
</g>
</svg>
