<?xml version="1.0" encoding="utf-8"?>
<!-- Generator: Adobe Illustrator 24.1.1, SVG Export Plug-In . SVG Version: 6.00 Build 0)  -->
<svg version="1.1" id="Layer_1" xmlns="http://www.w3.org/2000/svg" xmlns:xlink="http://www.w3.org/1999/xlink" x="0px" y="0px"
	 viewBox="0 0 283.46 283.46" style="enable-background:new 0 0 283.46 283.46;" xml:space="preserve">
<style type="text/css">
	.st0{fill:#2055A3;}
	.st1{fill:#D80E2A;}
</style>
<g>
	<g>
		<path class="st0" d="M100.24,138.57v6.32c0,2.92-0.46,5.73-1.32,8.37c-0.53,1.64-1.22,3.22-2.05,4.7
			c-4.6,8.31-13.46,13.93-23.63,13.93s-19.03-5.63-23.63-13.94c-0.83-1.48-1.51-3.06-2.05-4.7c-0.86-2.63-1.32-5.44-1.32-8.36
			v-33.32h27v27H100.24z"/>
		<polyline class="st1" points="100.24,138.57 100.24,111.57 73.24,111.57 		"/>
	</g>
	<rect x="114.26" y="111.57" class="st0" width="8.7" height="49.84"/>
	<path class="st0" d="M153.66,111.64h-25.84v49.77h25.84c8.1,0,14.7-6.53,14.7-14.55c0-3.9-1.52-7.55-4.27-10.34
		c2.76-2.78,4.27-6.42,4.27-10.27C168.36,118.2,161.77,111.64,153.66,111.64z M136.45,140.88h17.22c3.35,0,6.07,2.69,6.07,5.99
		c0,3.26-2.72,5.92-6.07,5.92h-17.22V140.88z M153.66,132.26h-17.22v-11.91h17.22c3.3,0,5.99,2.65,5.99,5.92
		C159.66,129.57,156.97,132.26,153.66,132.26z"/>
	<g>
		<path class="st1" d="M114.26,166.57h1.21v5.23h-1.21V166.57z"/>
		<path class="st1" d="M120.74,169.5v2.3h-1.17v-2.12c0-0.65-0.3-0.95-0.81-0.95c-0.56,0-0.96,0.34-0.96,1.08v1.99h-1.17v-4.02h1.11
			v0.47c0.31-0.34,0.79-0.53,1.33-0.53C120.02,167.72,120.74,168.28,120.74,169.5z"/>
		<path class="st1" d="M124.39,171.61c-0.24,0.17-0.59,0.25-0.95,0.25c-0.95,0-1.5-0.49-1.5-1.44v-1.65h-0.62v-0.9h0.62v-0.98h1.17
			v0.98h1v0.9h-1v1.64c0,0.34,0.19,0.53,0.5,0.53c0.17,0,0.34-0.05,0.47-0.15L124.39,171.61z"/>
		<path class="st1" d="M128.84,170.12h-3.04c0.11,0.5,0.54,0.81,1.15,0.81c0.43,0,0.73-0.13,1.01-0.39l0.62,0.67
			c-0.37,0.43-0.93,0.65-1.66,0.65c-1.39,0-2.3-0.87-2.3-2.07c0-1.2,0.92-2.07,2.15-2.07c1.18,0,2.09,0.79,2.09,2.09
			C128.87,169.9,128.85,170.02,128.84,170.12z M125.79,169.44h1.98c-0.08-0.51-0.46-0.84-0.99-0.84
			C126.25,168.6,125.87,168.93,125.79,169.44z"/>
		<path class="st1" d="M132.14,167.72v1.08c-0.1-0.01-0.17-0.02-0.26-0.02c-0.64,0-1.07,0.35-1.07,1.12v1.9h-1.17v-4.02h1.11v0.53
			C131.04,167.92,131.52,167.72,132.14,167.72z"/>
		<path class="st1" d="M136.95,169.5v2.3h-1.17v-2.12c0-0.65-0.3-0.95-0.81-0.95c-0.56,0-0.96,0.34-0.96,1.08v1.99h-1.17v-4.02h1.11
			v0.47c0.31-0.34,0.79-0.53,1.33-0.53C136.24,167.72,136.95,168.28,136.95,169.5z"/>
		<path class="st1" d="M141.57,169.51v2.3h-1.09v-0.5c-0.22,0.37-0.64,0.56-1.23,0.56c-0.94,0-1.5-0.52-1.5-1.22
			c0-0.71,0.5-1.2,1.73-1.2h0.93c0-0.5-0.3-0.79-0.93-0.79c-0.43,0-0.87,0.14-1.16,0.37l-0.42-0.81c0.44-0.31,1.09-0.49,1.73-0.49
			C140.86,167.72,141.57,168.29,141.57,169.51z M140.4,170.53v-0.41h-0.8c-0.55,0-0.72,0.2-0.72,0.47c0,0.29,0.25,0.49,0.66,0.49
			C139.93,171.08,140.27,170.9,140.4,170.53z"/>
		<path class="st1" d="M145.22,171.61c-0.24,0.17-0.59,0.25-0.95,0.25c-0.95,0-1.5-0.49-1.5-1.44v-1.65h-0.62v-0.9h0.62v-0.98h1.17
			v0.98h1v0.9h-1v1.64c0,0.34,0.19,0.53,0.5,0.53c0.17,0,0.34-0.05,0.47-0.15L145.22,171.61z"/>
		<path class="st1" d="M145.74,166.57c0-0.37,0.29-0.65,0.73-0.65c0.43,0,0.73,0.27,0.73,0.63c0,0.39-0.29,0.67-0.73,0.67
			C146.03,167.22,145.74,166.94,145.74,166.57z M145.88,167.78h1.17v4.02h-1.17V167.78z"/>
		<path class="st1" d="M147.83,169.79c0-1.21,0.93-2.07,2.21-2.07c1.28,0,2.21,0.86,2.21,2.07c0,1.21-0.93,2.07-2.21,2.07
			C148.77,171.86,147.83,171,147.83,169.79z M151.07,169.79c0-0.7-0.44-1.11-1.02-1.11c-0.58,0-1.03,0.42-1.03,1.11
			s0.45,1.11,1.03,1.11C150.63,170.91,151.07,170.49,151.07,169.79z"/>
		<path class="st1" d="M157.14,169.5v2.3h-1.17v-2.12c0-0.65-0.3-0.95-0.81-0.95c-0.56,0-0.96,0.34-0.96,1.08v1.99h-1.17v-4.02h1.11
			v0.47c0.31-0.34,0.79-0.53,1.33-0.53C156.43,167.72,157.14,168.28,157.14,169.5z"/>
		<path class="st1" d="M161.76,169.51v2.3h-1.09v-0.5c-0.22,0.37-0.64,0.56-1.23,0.56c-0.94,0-1.5-0.52-1.5-1.22
			c0-0.71,0.5-1.2,1.73-1.2h0.93c0-0.5-0.3-0.79-0.93-0.79c-0.43,0-0.87,0.14-1.16,0.37l-0.42-0.81c0.44-0.31,1.09-0.49,1.73-0.49
			C161.05,167.72,161.76,168.29,161.76,169.51z M160.59,170.53v-0.41h-0.8c-0.55,0-0.72,0.2-0.72,0.47c0,0.29,0.25,0.49,0.66,0.49
			C160.12,171.08,160.46,170.9,160.59,170.53z"/>
		<path class="st1" d="M162.82,166.26h1.17v5.55h-1.17V166.26z"/>
		<path class="st1" d="M172.07,170.38c0,0.9-0.72,1.43-2.09,1.43h-2.71v-5.23h2.56c1.31,0,1.98,0.55,1.98,1.36
			c0,0.52-0.27,0.93-0.7,1.15C171.69,169.27,172.07,169.72,172.07,170.38z M168.47,167.48v1.23h1.2c0.59,0,0.91-0.21,0.91-0.62
			c0-0.41-0.32-0.61-0.91-0.61H168.47z M170.85,170.25c0-0.44-0.34-0.65-0.96-0.65h-1.41v1.29h1.41
			C170.51,170.89,170.85,170.7,170.85,170.25z"/>
		<path class="st1" d="M175.4,167.72v1.08c-0.1-0.01-0.17-0.02-0.26-0.02c-0.64,0-1.07,0.35-1.07,1.12v1.9h-1.17v-4.02h1.11v0.53
			C174.31,167.92,174.78,167.72,175.4,167.72z"/>
		<path class="st1" d="M175.96,166.57c0-0.37,0.29-0.65,0.73-0.65c0.43,0,0.73,0.27,0.73,0.63c0,0.39-0.29,0.67-0.73,0.67
			C176.25,167.22,175.96,166.94,175.96,166.57z M176.1,167.78h1.17v4.02h-1.17V167.78z"/>
		<path class="st1" d="M180.95,171.61c-0.24,0.17-0.59,0.25-0.95,0.25c-0.95,0-1.5-0.49-1.5-1.44v-1.65h-0.62v-0.9h0.62v-0.98h1.17
			v0.98h1v0.9h-1v1.64c0,0.34,0.19,0.53,0.5,0.53c0.17,0,0.34-0.05,0.47-0.15L180.95,171.61z"/>
		<path class="st1" d="M181.46,166.57c0-0.37,0.29-0.65,0.73-0.65c0.43,0,0.73,0.27,0.73,0.63c0,0.39-0.29,0.67-0.73,0.67
			C181.76,167.22,181.46,166.94,181.46,166.57z M181.61,167.78h1.17v4.02h-1.17V167.78z"/>
		<path class="st1" d="M183.47,171.43l0.39-0.84c0.36,0.23,0.9,0.39,1.4,0.39c0.54,0,0.74-0.14,0.74-0.37
			c0-0.66-2.43,0.02-2.43-1.59c0-0.76,0.69-1.3,1.86-1.3c0.55,0,1.17,0.13,1.55,0.35l-0.39,0.83c-0.4-0.22-0.79-0.3-1.16-0.3
			c-0.52,0-0.75,0.16-0.75,0.37c0,0.69,2.43,0.02,2.43,1.61c0,0.75-0.7,1.28-1.9,1.28C184.53,171.86,183.84,171.68,183.47,171.43z"
			/>
		<path class="st1" d="M191.94,169.5v2.3h-1.17v-2.12c0-0.65-0.3-0.95-0.82-0.95c-0.56,0-0.96,0.34-0.96,1.08v1.99h-1.17v-5.55H189
			v1.94c0.31-0.31,0.76-0.48,1.28-0.48C191.22,167.72,191.94,168.28,191.94,169.5z"/>
		<path class="st1" d="M194.87,169.19c0-1.58,1.21-2.71,2.84-2.71c0.9,0,1.66,0.33,2.15,0.93l-0.78,0.72
			c-0.35-0.4-0.79-0.61-1.32-0.61c-0.98,0-1.67,0.69-1.67,1.67c0,0.99,0.7,1.67,1.67,1.67c0.52,0,0.96-0.21,1.32-0.62l0.78,0.72
			c-0.49,0.61-1.25,0.93-2.16,0.93C196.08,171.89,194.87,170.76,194.87,169.19z"/>
		<path class="st1" d="M204.38,170.12h-3.04c0.11,0.5,0.54,0.81,1.15,0.81c0.43,0,0.73-0.13,1.01-0.39l0.62,0.67
			c-0.37,0.43-0.93,0.65-1.66,0.65c-1.39,0-2.3-0.87-2.3-2.07c0-1.2,0.92-2.07,2.15-2.07c1.18,0,2.09,0.79,2.09,2.09
			C204.4,169.9,204.38,170.02,204.38,170.12z M201.32,169.44h1.98c-0.08-0.51-0.46-0.84-0.99-0.84
			C201.78,168.6,201.4,168.93,201.32,169.44z"/>
		<path class="st1" d="M209.29,169.5v2.3h-1.17v-2.12c0-0.65-0.3-0.95-0.82-0.95c-0.56,0-0.96,0.34-0.96,1.08v1.99h-1.17v-4.02h1.11
			v0.47c0.31-0.34,0.79-0.53,1.33-0.53C208.57,167.72,209.29,168.28,209.29,169.5z"/>
		<path class="st1" d="M212.94,171.61c-0.24,0.17-0.59,0.25-0.95,0.25c-0.95,0-1.5-0.49-1.5-1.44v-1.65h-0.62v-0.9h0.62v-0.98h1.17
			v0.98h1v0.9h-1v1.64c0,0.34,0.19,0.53,0.5,0.53c0.17,0,0.34-0.05,0.47-0.15L212.94,171.61z"/>
		<path class="st1" d="M216.1,167.72v1.08c-0.1-0.01-0.17-0.02-0.26-0.02c-0.64,0-1.07,0.35-1.07,1.12v1.9h-1.17v-4.02h1.11v0.53
			C215,167.92,215.48,167.72,216.1,167.72z"/>
		<path class="st1" d="M220.68,170.12h-3.04c0.11,0.5,0.54,0.81,1.15,0.81c0.43,0,0.73-0.13,1.01-0.39l0.62,0.67
			c-0.37,0.43-0.93,0.65-1.66,0.65c-1.39,0-2.3-0.87-2.3-2.07c0-1.2,0.92-2.07,2.15-2.07c1.18,0,2.09,0.79,2.09,2.09
			C220.7,169.9,220.68,170.02,220.68,170.12z M217.62,169.44h1.98c-0.08-0.51-0.46-0.84-0.99-0.84
			C218.08,168.6,217.7,168.93,217.62,169.44z"/>
	</g>
	<path class="st0" d="M211.11,143.67c-2.75,5.49-8.45,9.05-14.51,9.05c-8.96,0-16.26-7.29-16.26-16.26s7.29-16.26,16.26-16.26
		c6.07,0,11.76,3.55,14.51,9.04l0.38,0.77h9.21l-0.66-1.85c-3.55-9.92-12.97-16.58-23.44-16.58c-13.76,0-24.96,11.16-24.96,24.88
		s11.2,24.88,24.96,24.88c10.46,0,19.88-6.66,23.44-16.58l0.66-1.85h-9.21L211.11,143.67z"/>
</g>
</svg>
